<?xml version="1.0" standalone="no"?>
<!DOCTYPE svg PUBLIC "-//W3C//DTD SVG 20010904//EN"
 "http://www.w3.org/TR/2001/REC-SVG-20010904/DTD/svg10.dtd">
<svg version="1.0" xmlns="http://www.w3.org/2000/svg"
 width="474.000000pt" height="266.000000pt" viewBox="0 0 474.000000 266.000000"
 preserveAspectRatio="xMidYMid meet">

<g transform="translate(0.000000,266.000000) scale(0.100000,-0.100000)"
fill="#000000" stroke="none">
<path d="M3020 2553 c0 -5 -13 -17 -27 -27 -23 -17 -26 -17 -20 -3 18 47 -42
-5 -67 -58 -13 -28 -20 -36 -25 -25 -3 8 -16 16 -28 18 -17 2 -24 -3 -28 -22
-3 -14 -7 -38 -10 -52 -4 -16 -2 -23 5 -19 16 10 12 -10 -8 -31 -10 -10 -16
-27 -14 -38 3 -13 0 -16 -9 -11 -8 5 -10 4 -5 -4 4 -6 -2 -31 -14 -53 -19 -36
-21 -52 -15 -108 3 -36 8 -72 11 -82 6 -20 31 -31 31 -12 0 7 -5 11 -10 7 -5
-3 -6 8 -2 28 33 164 57 219 105 244 38 20 57 19 81 -3 18 -18 18 -19 2 -34
-10 -8 -25 -18 -33 -21 -12 -4 -11 -6 3 -6 20 -1 23 -21 3 -21 -8 0 -24 -16
-36 -35 -17 -28 -20 -43 -14 -80 3 -25 10 -48 15 -51 25 -15 5 -51 -52 -98
-15 -13 -19 -21 -11 -24 9 -3 11 -19 7 -55 l-6 -52 23 28 c13 15 27 24 31 21
12 -12 8 -24 -7 -24 -15 0 -11 -34 5 -56 5 -6 2 -20 -7 -32 -9 -13 -11 -22 -5
-22 6 0 11 -5 11 -11 0 -7 -12 -10 -29 -7 -40 6 -29 -10 13 -17 l33 -7 1 -81
c2 -93 10 -140 22 -132 5 3 12 0 16 -6 4 -7 3 -9 -3 -6 -15 9 -26 -24 -13 -37
8 -8 13 -8 18 0 5 9 11 8 20 -2 7 -8 10 -14 8 -14 -3 0 4 -16 15 -36 13 -24
22 -61 24 -106 2 -37 9 -85 15 -106 10 -31 8 -44 -9 -85 -11 -26 -17 -46 -13
-43 8 4 26 45 53 114 5 13 13 21 18 18 5 -4 11 0 13 6 3 7 13 -12 23 -42 27
-86 140 -190 205 -190 36 0 110 44 110 66 0 13 23 62 50 104 5 8 16 33 25 55
9 22 21 48 26 58 6 10 7 28 3 39 -4 14 -2 18 5 14 7 -5 12 5 13 26 3 67 5 86
13 104 18 45 33 258 18 267 -6 4 -12 -23 -16 -71 -7 -100 -42 -171 -69 -144
-8 8 -5 24 7 54 11 26 17 66 16 103 -1 46 1 56 10 45 8 -12 10 -8 6 15 -9 55
2 84 42 102 20 9 39 22 43 27 12 18 8 60 -7 81 -10 12 -13 30 -9 52 4 21 2 33
-5 33 -5 0 -15 9 -20 19 -9 16 -8 18 9 14 11 -3 20 -9 20 -14 0 -5 6 -6 14 -3
8 3 12 13 8 26 -3 14 -1 19 6 14 17 -11 20 57 2 71 -13 11 -13 12 3 13 14 0
17 10 17 59 0 64 -11 103 -35 127 -8 9 -15 20 -15 25 0 12 17 12 23 -1 3 -6 4
-5 3 2 -2 8 -14 12 -30 10 -30 -3 -35 14 -6 23 23 7 25 18 7 37 -8 7 -16 18
-18 24 -2 7 -34 35 -71 63 -60 46 -72 51 -118 51 -27 0 -50 5 -50 10 0 15 -64
12 -96 -5 -17 -8 -32 -11 -39 -5 -16 13 -93 18 -134 9 -22 -5 -37 -4 -39 1 -4
12 -32 13 -32 3z m325 -17 c12 -12 11 -15 -10 -19 -17 -3 -25 0 -25 9 0 17 -5
17 -33 2 -20 -10 -21 -10 -8 5 16 21 57 22 76 3z m65 -36 c0 -5 -4 -10 -10
-10 -5 0 -10 5 -10 10 0 6 5 10 10 10 6 0 10 -4 10 -10z m42 -50 c12 -11 19
-22 16 -25 -2 -3 -15 6 -28 20 -28 30 -18 34 12 5z m78 -110 c0 -5 -4 -10 -10
-10 -5 0 -10 5 -10 10 0 6 5 10 10 10 6 0 10 -4 10 -10z m103 -83 c-9 -14 -23
4 -23 31 l1 27 13 -25 c8 -14 12 -28 9 -33z m-288 -27 c22 -11 48 -19 57 -20
20 0 33 -38 25 -75 -3 -17 7 -44 29 -82 19 -30 34 -62 34 -69 0 -8 10 -14 23
-14 18 -1 19 -2 6 -10 -13 -8 -15 -18 -8 -62 5 -29 13 -54 19 -56 5 -2 10 -8
10 -13 0 -6 -5 -7 -11 -3 -8 5 -8 1 0 -14 15 -29 14 -39 -8 -45 -13 -3 -20
-17 -24 -46 -3 -24 -12 -50 -21 -60 -10 -11 -12 -21 -5 -31 22 -35 -22 -140
-59 -140 -9 0 -36 62 -48 113 -3 15 -10 27 -14 27 -4 0 -11 16 -14 35 -4 19
-12 40 -19 47 -19 21 -18 36 1 43 10 3 32 19 48 36 l29 31 -39 -26 c-46 -31
-66 -34 -42 -7 10 11 15 24 12 29 -3 6 0 24 7 40 10 25 16 28 30 21 12 -7 17
-6 18 3 0 7 5 2 12 -12 11 -24 11 -23 15 20 3 39 0 48 -25 67 -15 12 -40 25
-55 29 -16 3 -26 9 -23 14 6 9 -18 20 -44 20 -27 0 -54 33 -39 48 7 7 16 12
21 12 5 0 15 7 23 15 9 8 11 15 5 15 -6 0 -8 7 -5 15 4 8 1 22 -6 30 -7 9 -10
18 -7 22 4 3 -2 18 -13 33 -11 15 -17 30 -13 34 13 12 79 5 118 -14z m302 -14
c-3 -8 -2 -17 4 -20 5 -2 4 -3 -3 -2 -17 3 -23 36 -8 36 7 0 10 -6 7 -14z
m-284 -260 c18 -14 24 -32 7 -21 -5 3 -10 1 -10 -5 0 -8 -4 -8 -12 0 -7 6 -22
17 -33 25 -19 14 -19 14 5 14 14 0 33 -6 43 -13z m221 -32 c4 -9 1 -23 -5 -30
-8 -10 -8 -22 0 -45 9 -26 7 -34 -9 -52 -11 -11 -20 -17 -21 -11 -11 119 -8
154 15 154 8 0 17 -7 20 -16z m-264 -34 c0 -5 -4 -10 -10 -10 -5 0 -10 5 -10
10 0 6 5 10 10 10 6 0 10 -4 10 -10z m-189 -77 c18 -25 40 -54 51 -65 37 -37
12 -75 -27 -38 l-23 22 -18 -27 -17 -27 -11 33 c-15 43 -33 47 -41 9 -6 -25
-10 -30 -27 -24 -14 4 -18 2 -14 -5 4 -6 2 -11 -3 -11 -18 0 -12 42 14 105 25
60 27 61 29 15 1 -15 8 -26 19 -28 15 -3 17 1 11 22 -4 16 -2 26 5 26 6 0 11
9 11 20 0 29 5 25 41 -27z m42 3 c11 1 16 0 13 -3 -3 -4 -1 -12 6 -20 6 -7 8
-16 4 -20 -8 -8 -45 25 -57 52 -9 17 -8 18 3 4 7 -9 21 -15 31 -13z m-188 -60
c-10 -14 -21 -26 -26 -26 -5 0 0 13 12 30 27 36 38 33 14 -4z m-35 -230 c0 -3
-4 -8 -10 -11 -5 -3 -10 -1 -10 4 0 6 5 11 10 11 6 0 10 -2 10 -4z m91 -29
c-8 -8 -11 -7 -11 4 0 20 13 34 18 19 3 -7 -1 -17 -7 -23z m6 -95 c11 -27 11
-32 0 -32 -22 0 -48 35 -41 54 9 24 26 15 41 -22z m243 28 c0 -5 -9 -10 -21
-10 -11 0 -17 5 -14 10 3 6 13 10 21 10 8 0 14 -4 14 -10z"/>
<path d="M2781 2398 c0 -28 2 -30 9 -13 12 28 12 45 0 45 -5 0 -10 -15 -9 -32z"/>
<path d="M3650 1953 c0 -4 5 -15 10 -23 8 -13 10 -13 10 2 0 9 -4 20 -10 23
-5 3 -10 3 -10 -2z"/>
<path d="M2750 1853 c0 -12 3 -14 8 -7 4 7 18 14 32 17 21 4 20 4 -7 6 -25 1
-33 -3 -33 -16z"/>
<path d="M2770 1781 c0 -6 4 -13 10 -16 6 -3 7 1 4 9 -7 18 -14 21 -14 7z"/>
<path d="M2807 1739 c7 -7 15 -10 18 -7 3 3 -2 9 -12 12 -14 6 -15 5 -6 -5z"/>
<path d="M3550 1715 c0 -8 4 -15 10 -15 5 0 7 7 4 15 -4 8 -8 15 -10 15 -2 0
-4 -7 -4 -15z"/>
<path d="M3781 1104 c0 -11 3 -14 6 -6 3 7 2 16 -1 19 -3 4 -6 -2 -5 -13z"/>
<path d="M3540 1073 c0 -28 -23 -189 -36 -250 -3 -18 -3 -33 2 -33 5 0 10 14
11 31 1 17 6 36 11 43 5 6 15 35 23 64 7 28 16 52 20 52 3 0 9 18 13 39 7 44
16 54 41 45 12 -5 15 -14 11 -33 -20 -92 -40 -371 -26 -371 17 0 73 141 93
234 12 58 30 114 38 125 15 17 15 19 -11 34 -31 19 -132 47 -167 47 -18 0 -23
-6 -23 -27z m17 -5 c-3 -8 -6 -5 -6 6 -1 11 2 17 5 13 3 -3 4 -12 1 -19z"/>
<path d="M4478 1053 c-15 -4 -17 -14 -13 -76 3 -40 7 -112 10 -162 3 -49 14
-125 24 -170 11 -44 23 -118 26 -165 7 -78 10 -88 41 -123 29 -31 33 -41 24
-58 -18 -33 7 -87 70 -149 31 -31 62 -54 68 -52 9 3 12 127 12 480 l0 477
-123 1 c-67 1 -130 0 -139 -3z m183 -329 c-1 -128 -16 -288 -27 -306 -7 -10
-41 -10 -47 0 -3 4 -1 32 4 62 5 30 12 123 17 207 5 102 12 156 21 167 28 34
34 11 32 -130z"/>
<path d="M3950 905 c0 -11 -2 -38 -5 -60 l-5 -40 15 44 c10 29 11 49 5 60 -8
14 -9 13 -10 -4z"/>
<path d="M3204 873 c12 -32 64 -169 98 -253 l10 -25 13 25 c20 36 18 59 -8 94
-13 17 -45 68 -71 114 -26 45 -49 82 -51 82 -2 0 2 -17 9 -37z"/>
<path d="M3770 860 c0 -22 2 -40 4 -40 2 0 6 18 8 40 2 22 0 40 -4 40 -5 0 -8
-18 -8 -40z"/>
<path d="M3472 779 c-7 -11 -10 -25 -6 -31 4 -6 3 -8 -4 -4 -15 9 -25 -12 -27
-55 -2 -55 26 -40 48 26 20 60 12 102 -11 64z"/>
<path d="M3762 770 c0 -14 2 -19 5 -12 2 6 2 18 0 25 -3 6 -5 1 -5 -13z"/>
<path d="M2593 721 c-10 -16 -8 -22 13 -42 26 -25 28 -20 11 29 -11 30 -13 31
-24 13z"/>
<path d="M3767 718 c-3 -12 -2 -29 3 -37 7 -12 9 -6 10 22 0 42 -5 48 -13 15z"/>
<path d="M3859 668 c0 -7 -2 -77 -2 -155 -2 -132 -1 -142 16 -137 27 8 20 -15
-8 -26 -14 -5 -25 -15 -25 -21 0 -9 3 -9 14 0 11 9 15 6 19 -16 3 -16 1 -35
-4 -43 -7 -12 -9 -11 -9 5 -1 18 -2 17 -11 -4 -15 -39 -5 -47 24 -19 15 15 29
22 32 17 4 -5 2 -9 -3 -9 -5 0 -12 -9 -15 -20 -3 -11 -2 -20 3 -20 9 0 23 40
19 55 -1 6 -3 25 -5 43 -2 27 2 33 22 38 20 5 23 10 17 28 -4 11 -6 62 -4 111
1 50 -2 101 -8 115 -9 21 -10 15 -6 -30 l5 -55 -25 78 c-23 69 -43 98 -46 65z"/>
<path d="M2634 578 c4 -19 1 -30 -9 -36 -13 -7 -12 -10 10 -22 21 -11 25 -21
25 -55 0 -25 6 -48 14 -55 8 -6 13 -17 10 -25 -3 -7 -1 -16 5 -19 5 -4 8 -22
6 -41 -3 -19 0 -37 6 -40 17 -11 -10 -34 -47 -41 -19 -3 -32 -10 -29 -14 5 -9
42 -5 80 7 11 4 26 8 33 9 25 4 26 14 4 62 -11 26 -38 99 -58 162 -20 63 -41
120 -47 125 -6 7 -7 1 -3 -17z"/>
<path d="M0 220 c0 -109 12 -145 23 -73 8 47 -3 183 -14 183 -5 0 -9 -49 -9
-110z"/>
<path d="M3820 260 c-11 -7 -12 -12 -4 -20 8 -8 13 -6 17 9 3 12 4 21 4 21 -1
0 -9 -5 -17 -10z"/>
<path d="M3707 120 c-6 -21 -9 -22 -17 -10 -8 12 -10 12 -10 1 0 -11 -5 -10
-20 4 -19 17 -21 17 -38 2 -10 -10 -24 -17 -30 -17 -7 0 -12 -4 -12 -10 0 -5
-6 -10 -14 -10 -30 0 -105 -52 -106 -72 0 -14 198 -9 203 5 4 9 8 8 16 -3 7
-10 11 -11 11 -2 0 16 27 16 32 0 6 -18 38 15 38 38 0 10 7 25 16 35 14 16 14
19 -5 38 -21 21 -21 21 -21 1 0 -27 -15 -25 -27 2 l-10 22 -6 -24z"/>
<path d="M3821 126 c-15 -18 -10 -29 12 -24 9 2 12 9 8 21 -6 17 -8 18 -20 3z"/>
<path d="M2705 119 c-12 -6 -26 -19 -33 -30 -10 -16 -9 -19 6 -19 10 0 26 14
35 30 10 17 17 30 15 29 -2 0 -12 -5 -23 -10z"/>
<path d="M3377 78 c6 -52 10 -66 16 -57 7 9 -6 109 -13 109 -5 0 -6 -24 -3
-52z"/>
<path d="M2575 91 l-30 -7 40 -7 c57 -10 62 -9 69 9 5 14 4 15 -8 5 -10 -8
-16 -9 -21 -1 -3 5 -9 9 -13 9 -4 -1 -20 -4 -37 -8z"/>
<path d="M3993 93 c9 -2 23 -2 30 0 6 3 -1 5 -18 5 -16 0 -22 -2 -12 -5z"/>
<path d="M4065 75 c17 -8 40 -14 53 -15 12 0 22 -5 22 -11 0 -6 9 -8 23 -4 16
5 18 4 8 -3 -12 -9 -12 -13 2 -26 22 -23 57 -21 57 3 0 11 8 21 18 24 12 3 8
6 -13 11 -118 28 -157 36 -177 35 -21 -1 -20 -2 7 -14z"/>
<path d="M3297 66 c-4 -10 0 -12 14 -9 22 6 26 23 5 23 -8 0 -16 -6 -19 -14z"/>
<path d="M3349 68 c-7 -27 -6 -68 1 -68 6 0 10 16 10 35 0 19 -2 35 -5 35 -3
0 -5 -1 -6 -2z"/>
<path d="M3963 53 c9 -2 23 -2 30 0 6 3 -1 5 -18 5 -16 0 -22 -2 -12 -5z"/>
<path d="M3280 35 c0 -5 5 -17 10 -25 5 -8 10 -11 10 -5 0 6 -5 17 -10 25 -5
8 -10 11 -10 5z"/>
</g>
</svg>
